# Blender v3.4.1 OBJ File: 'Testing2.blend'
# www.blender.org
mtllib Block.mtl
o Block_Cube.002
v -1.000000 -1.000000 -1.000000
v -1.000000 -1.000000 1.000000
v 1.000000 -1.000000 -1.000000
v 1.000000 -1.000000 1.000000
v -0.592000 1.000000 -0.592000
v -1.000000 0.479084 -1.000000
v -0.592000 1.000000 0.592000
v -1.000000 0.479084 1.000000
v 0.592000 1.000000 -0.592000
v 1.000000 0.479084 -1.000000
v 1.000000 0.479084 1.000000
v 0.592000 1.000000 0.592000
vt 0.592500 0.282500
vt 0.407500 0.467500
vt 0.407500 0.282500
vt 0.875000 0.532500
vt 0.625000 0.750000
vt 0.625000 0.532500
vt 0.375000 1.000000
vt 0.375000 0.750000
vt 0.625000 0.000000
vt 0.375000 0.217500
vt 0.375000 0.000000
vt 0.375000 0.532500
vt 0.625000 0.217500
vt 0.375000 0.250000
vt 0.375000 0.500000
vt 0.625000 0.500000
vt 0.625000 0.250000
vt 0.592500 0.467500
vt 0.125000 0.750000
vt 0.125000 0.532500
vt 0.875000 0.750000
vt 0.625000 1.000000
vn 0.0000 1.0000 0.0000
vn 0.0000 0.0000 1.0000
vn 0.0000 -1.0000 0.0000
vn -1.0000 0.0000 0.0000
vn 1.0000 0.0000 0.0000
vn -0.7873 0.6166 0.0000
vn 0.0000 0.6166 -0.7873
vn 0.0000 0.6166 0.7873
vn 0.7873 0.6166 0.0000
vn 0.0000 0.0000 -1.0000
usemtl Block
s off
f 7/1/1 9/2/1 5/3/1
f 8/4/2 4/5/2 11/6/2
f 4/5/3 1/7/3 3/8/3
f 2/9/4 6/10/4 1/11/4
f 11/6/5 3/8/5 10/12/5
f 5/3/6 8/13/6 7/1/6
f 6/14/7 9/2/7 10/15/7
f 11/16/8 7/1/8 8/17/8
f 10/12/9 12/18/9 11/6/9
f 10/12/10 1/19/10 6/20/10
f 7/1/1 12/18/1 9/2/1
f 8/4/2 2/21/2 4/5/2
f 4/5/3 2/22/3 1/7/3
f 2/9/4 8/13/4 6/10/4
f 11/6/5 4/5/5 3/8/5
f 5/3/6 6/10/6 8/13/6
f 6/14/7 5/3/7 9/2/7
f 11/16/8 12/18/8 7/1/8
f 10/12/9 9/2/9 12/18/9
f 10/12/10 3/8/10 1/19/10
